<svg xmlns="http://www.w3.org/2000/svg" viewBox="0 0 100 100">
  <defs>
    <linearGradient id="bgGradient" x1="0%" y1="0%" x2="100%" y2="100%">
      <stop offset="0%" style="stop-color:#a855f7"/>
      <stop offset="50%" style="stop-color:#6366f1"/>
      <stop offset="100%" style="stop-color:#3b82f6"/>
    </linearGradient>
    <linearGradient id="sailGradient" x1="0%" y1="0%" x2="100%" y2="100%">
      <stop offset="0%" style="stop-color:#ffffff"/>
      <stop offset="50%" style="stop-color:#f0f4ff"/>
      <stop offset="100%" style="stop-color:#c7d2fe"/>
    </linearGradient>
    <linearGradient id="sail2Gradient" x1="100%" y1="0%" x2="0%" y2="100%">
      <stop offset="0%" style="stop-color:#ffffff"/>
      <stop offset="100%" style="stop-color:#ddd6fe"/>
    </linearGradient>
    <linearGradient id="hullGradient" x1="0%" y1="0%" x2="100%" y2="0%">
      <stop offset="0%" style="stop-color:#f0f4ff"/>
      <stop offset="50%" style="stop-color:#ffffff"/>
      <stop offset="100%" style="stop-color:#f0f4ff"/>
    </linearGradient>
    <linearGradient id="mastGradient" x1="0%" y1="0%" x2="100%" y2="0%">
      <stop offset="0%" style="stop-color:#e0e7ff"/>
      <stop offset="50%" style="stop-color:#ffffff"/>
      <stop offset="100%" style="stop-color:#e0e7ff"/>
    </linearGradient>
  </defs>
  <rect x="0" y="0" width="100" height="100" rx="18" ry="18" fill="url(#bgGradient)"/>
  <!-- Main sail -->
  <path fill="url(#sailGradient)" d="M35 18 L35 72 L72 62 Q48 42 35 18" opacity="0.95"/>
  <!-- Secondary sail -->
  <path fill="url(#sail2Gradient)" d="M35 28 L35 68 L22 65 Q28 48 35 28" opacity="0.8"/>
  <!-- Mast -->
  <rect x="33" y="16" width="4" height="62" rx="2" fill="url(#mastGradient)" opacity="0.95"/>
  <!-- Hull -->
  <path fill="url(#hullGradient)" d="M18 72 Q20 80 50 82 Q80 80 82 72 L75 72 Q73 76 50 78 Q27 76 25 72 Z" opacity="0.9"/>
</svg>
